# xmcd CD database file
#
# Track frame offsets:
#	200
#	16237
#	33107
#	51205
#	73620
#	88612
#	104547
#	123177
#	139345
#	153387
#
# Disc length: 2452 seconds
#
# Revision: 0
# Processed by: cddbd v1.5.2PL0 Copyright (c) Steve Scherf et al.
# Submitted via: CDex 1.51
#
DISCID=7e09920a
DTITLE=Terry Gibbs - A JAZZ BAND BALL -
DYEAR=1900
DGENRE=Jazz
TTITLE0=The Dipsy Doodle
TTITLE1=Where or When
TTITLE2=I'm Getting Sentimental over You
TTITLE3=Hollywood Blues
TTITLE4=Tangerine
TTITLE5=Just Friends
TTITLE6=Softly, As in a Morning Sunrise
TTITLE7=Memories of You
TTITLE8=Broadway
TTITLE9=Allen's Alley
EXTD=
EXTT0=
EXTT1=
EXTT2=
EXTT3=
EXTT4=
EXTT5=
EXTT6=
EXTT7=
EXTT8=
EXTT9=
PLAYORDER=
